<svg xmlns="http://www.w3.org/2000/svg" width="449px" height="461px" xmlns:xlink="http://www.w3.org/1999/xlink" viewBox="0 0 449 461">
<g fill-rule="evenodd" fill="none">
<g transform="translate(-785 -266)">
<g transform="translate(784 265)">
<path fill="#ddd" d="m226 366h38v70h-38v-70z"/>
<path fill="#888" d="m228 368h34v66h-34v-66zm-2 68h38v-70h-38v70z"/>
<path fill="#ddd" d="m172 382h38v70h-38v-70z"/>
<path fill="#888" d="m174 384h34v66h-34v-66zm-2 68h38v-70h-38v70z"/>
<path fill="#fff" d="m153 366h31v70h-31v-70z"/>
<path fill="#888" d="m155 368h27v66h-27v-66zm-2 68h31v-70h-31v70z"/>
<path fill="#fff" d="m151 433h35v6h-35v-6z"/>
<path fill="#888" d="m153 435h31v2h-31v-2zm-2 4h35v-6h-35v6z"/>
<path fill="#fff" d="m151 406h35v6h-35v-6z"/>
<path fill="#888" d="m153 408h31v2h-31v-2zm-2 4h35v-6h-35v6z"/>
<path fill="#6EAACE" d="m170 414h9v17h-9v-17z"/>
<path fill="#888" d="m172 416h5v13h-5v-13zm-2 15h9v-17h-9v17z"/>
<path fill="#6EAACE" d="m158 414h9v17h-9v-17z"/>
<path fill="#888" d="m160 416h5v13h-5v-13zm-2 15h9v-17h-9v17z"/>
<path fill="#6EAACE" d="m170 387h9v17h-9v-17z"/>
<path fill="#888" d="m172 389h5v13h-5v-13zm-2 15h9v-17h-9v17z"/>
<path fill="#6EAACE" d="m158 387h9v17h-9v-17z"/>
<path fill="#888" d="m160 389h5v13h-5v-13zm-2 15h9v-17h-9v17z"/>
<path fill="#fff" d="m196 383h44v75h-44v-75z"/>
<path fill="#888" d="m198 385h40v71h-40v-71zm-2 73h44v-75h-44v75z"/>
<path fill="#fff" d="m194 456h48v6h-48v-6z"/>
<path fill="#888" d="m196 458h44v2h-44v-2zm-2 4h48v-6h-48v6z"/>
<path fill="#fff" d="m194 410h48v6h-48v-6z"/>
<path fill="#888" d="m196 412h44v2h-44v-2zm-2 4h48v-6h-48v6z"/>
<path fill="#fff" d="m214 388h8v18h-8v-18z"/>
<path fill="#888" d="m216 390h4v14h-4v-14zm-2 16h8v-18h-8v18z"/>
<path fill="#fff" d="m249 372h38v73h-38v-73z"/>
<path fill="#888" d="m251 374h34v69h-34v-69zm-2 71h38v-73h-38v73z"/>
<path fill="#fff" d="m247 442h42v6h-42v-6z"/>
<path fill="#888" d="m249 444h38v2h-38v-2zm-2 4h42v-6h-42v6z"/>
<path fill="#6EAACE" d="m277 428h6v12h-6v-12z"/>
<path fill="#888" d="m279 430h2v8h-2v-8zm-2 10h6v-12h-6v12z"/>
<path fill="#6EAACE" d="m269 428h6v12h-6v-12z"/>
<path fill="#888" d="m271 430h2v8h-2v-8zm-2 10h6v-12h-6v12z"/>
<path fill="#6EAACE" d="m261 428h6v12h-6v-12z"/>
<path fill="#888" d="m263 430h2v8h-2v-8zm-2 10h6v-12h-6v12z"/>
<path fill="#6EAACE" d="m253 428h6v12h-6v-12z"/>
<path fill="#888" d="m255 430h2v8h-2v-8zm-2 10h6v-12h-6v12z"/>
<path fill="#6EAACE" d="m277 414h6v12h-6v-12z"/>
<path fill="#888" d="m279 416h2v8h-2v-8zm-2 10h6v-12h-6v12z"/>
<path fill="#6EAACE" d="m269 414h6v12h-6v-12z"/>
<path fill="#888" d="m271 416h2v8h-2v-8zm-2 10h6v-12h-6v12z"/>
<path fill="#6EAACE" d="m261 414h6v12h-6v-12z"/>
<path fill="#888" d="m263 416h2v8h-2v-8zm-2 10h6v-12h-6v12z"/>
<path fill="#6EAACE" d="m253 414h6v12h-6v-12z"/>
<path fill="#888" d="m255 416h2v8h-2v-8zm-2 10h6v-12h-6v12z"/>
<path fill="#6EAACE" d="m277 400h6v12h-6v-12z"/>
<path fill="#888" d="m279 402h2v8h-2v-8zm-2 10h6v-12h-6v12z"/>
<path fill="#6EAACE" d="m269 400h6v12h-6v-12z"/>
<path fill="#888" d="m271 402h2v8h-2v-8zm-2 10h6v-12h-6v12z"/>
<path fill="#6EAACE" d="m261 400h6v12h-6v-12z"/>
<path fill="#888" d="m263 402h2v8h-2v-8zm-2 10h6v-12h-6v12z"/>
<path fill="#6EAACE" d="m253 400h6v12h-6v-12z"/>
<path fill="#888" d="m255 402h2v8h-2v-8zm-2 10h6v-12h-6v12z"/>
<path fill="#6EAACE" d="m277 386h6v12h-6v-12z"/>
<path fill="#888" d="m279 388h2v8h-2v-8zm-2 10h6v-12h-6v12z"/>
<path fill="#6EAACE" d="m269 386h6v12h-6v-12z"/>
<path fill="#888" d="m271 388h2v8h-2v-8zm-2 10h6v-12h-6v12z"/>
<path fill="#6EAACE" d="m261 386h6v12h-6v-12z"/>
<path fill="#888" d="m263 388h2v8h-2v-8zm-2 10h6v-12h-6v12z"/>
<path fill="#6EAACE" d="m253 386h6v12h-6v-12z"/>
<path fill="#888" d="m255 388h2v8h-2v-8zm-2 10h6v-12h-6v12z"/>
<path fill="#fff" d="m343 153l88 34 3 20 16 6-15 44 11 13-20 15 6 12s-26.5 32-28 33-46 6.5-48 8-26 3-26 3l13-188"/>
<path fill="#888" d="m344.81 155.84l84.39 32.61 3 20.01 15.28 5.73-14.74 43.24 10.36 12.24-19.64 14.73 6.17 12.33c-9.63 11.62-24.42 29.28-26.67 31.52-1.89 0.5-11.12 1.85-19.31 3.04-21.91 3.18-27.33 4.13-28.75 5.04-1.67 0.75-12.45 1.83-22.75 2.53l12.66-183.02m-1.81-2.84l-13 188s24-1.5 26-3 46.5-7 48-8 28-33 28-33l-6-12 20-15-11-13 15-44-16-6-3-20-88-34"/>
<path fill="#fff" d="m221 90c82.84 0 150 67.16 150 150s-67.16 150-150 150-150-67.16-150-150 67.16-150 150-150"/>
<path fill="#888" d="m221 92c39.53 0 76.7 15.4 104.65 43.35s43.35 65.12 43.35 104.65-15.4 76.7-43.35 104.65-65.12 43.35-104.65 43.35-76.7-15.4-104.65-43.35c-27.955-27.95-43.35-65.12-43.35-104.65s15.395-76.7 43.35-104.65c27.95-27.95 65.12-43.35 104.65-43.35m0-2c-82.84 0-150 67.16-150 150s67.16 150 150 150 150-67.16 150-150-67.16-150-150-150"/>
<path fill="#6EAACE" d="m72 251s3.75 19 17 19c17.38 0 19.24-39 36-39 16.75 0 28.67 12.67 31 48v-59s-6.75-17-27-17c-27.75 0-29.75 53-41 53-13.75 0-16-12-16-12v7"/>
<path fill="#9A9A9A" d="m129 205c17.31 0 23.96 13.09 25 15.41v34.02c-1.67-5.51-3.82-10.09-6.46-13.83-5.44-7.7-13.03-11.6-22.54-11.6-9.56 0-14.58 10.35-19.44 20.36-4.65 9.59-9.046 18.64-16.56 18.64-9.069 0-13.188-10.82-14.523-15.39 2.699 2.87 6.942 5.39 13.523 5.39 5.768 0 8.9-8.44 12.86-19.13 5.61-15.09 12.58-33.87 28.14-33.87m0-2c-27.75 0-29.75 53-41 53-13.75 0-16-12-16-12v7s3.75 19 17 19c17.38 0 19.24-39 36-39 16.75 0 28.67 12.67 31 48v-59s-6.75-17-27-17"/>
<path fill="#888" d="m85.091 176.47c0.073-0.16 0.146-0.31 0.219-0.47h-0.219v0.47"/>
<path fill="#888" d="m25.091 245.15l22.981-13.27c0.21-0.12 0.38-0.28 0.529-0.47l22.708 12.35c-0.019-0.78-0.022-1.55-0.03-2.33l-22.676-12.54c-0.15-0.19-0.321-0.35-0.531-0.47l-42.072-24.29 103-60.13h-4l-103 60.13 44.182 25.51-0.182 0.36 0.686 0.37-25.595 14.78 54.405 31.41c-0.224-0.89-0.448-1.79-0.656-2.69l-49.749-28.72"/>
<path fill="#6EAACE" d="m207.48 56.31c-13.08 2.111-21.98 14.431-19.87 27.516l47.39-7.645c-2.11-13.086-14.43-21.982-27.52-19.871"/>
<g fill="#888">
<path d="m211.34 58c10.16 0 18.82 6.845 21.28 16.539l-43.26 6.98c-0.78-11.216 7.13-21.41 18.44-23.235 1.17-0.188 2.36-0.284 3.54-0.284m0-2c-1.28 0-2.56 0.101-3.86 0.31-13.08 2.111-21.98 14.431-19.87 27.516l47.39-7.645c-1.9-11.791-12.09-20.181-23.66-20.181"/>
<path d="m196.96 82.318c-0.12 0.323-0.29 0.632-0.5 0.92-0.62 0.866-1.55 1.437-2.6 1.607-0.22 0.035-0.44 0.052-0.65 0.052-1.25 0-2.37-0.565-3.1-1.474l6.85-1.105m2.18-2.378l-11.85 1.912c0.48 2.948 3.03 5.045 5.92 5.045 0.32 0 0.64-0.025 0.96-0.078 3.27-0.527 5.5-3.607 4.97-6.879"/>
<path d="m208.8 80.407c-0.12 0.323-0.28 0.632-0.49 0.92-0.63 0.866-1.55 1.437-2.61 1.607-0.21 0.034-0.43 0.052-0.64 0.052-1.25 0-2.37-0.566-3.1-1.474l6.84-1.105m2.19-2.378l-11.85 1.911c0.48 2.948 3.02 5.046 5.92 5.046 0.32 0 0.64-0.026 0.96-0.078 3.27-0.528 5.5-3.608 4.97-6.879"/>
<path d="m220.65 78.496c-0.12 0.323-0.29 0.631-0.5 0.919-0.62 0.866-1.55 1.437-2.6 1.607-0.21 0.035-0.43 0.052-0.65 0.052-1.24 0-2.36-0.565-3.1-1.473l6.85-1.105m2.19-2.378l-11.85 1.911c0.47 2.948 3.02 5.045 5.91 5.045 0.32 0 0.64-0.025 0.97-0.077 3.27-0.528 5.49-3.608 4.97-6.879"/>
<path d="m232.5 76.585c-0.5 1.29-1.65 2.291-3.1 2.526-0.22 0.035-0.44 0.052-0.65 0.052-1.24 0-2.37-0.565-3.1-1.474l6.85-1.104m2.18-2.378l-11.84 1.911c0.47 2.947 3.02 5.045 5.91 5.045 0.32 0 0.64-0.025 0.96-0.077 3.27-0.528 5.5-3.608 4.97-6.879"/>
<path d="m215.96 102.55l-1.98 0.32-3.66-22.707 1.97-0.319 3.67 22.706"/>
</g>
<path fill="#6EAACE" d="m262.7 42.471c-13-2.6-25.64 5.829-28.24 18.827l47.07 9.413c2.6-12.997-5.83-25.641-18.83-28.24"/>
<g fill="#888">
<path d="m257.97 44c1.45 0 2.91 0.145 4.34 0.432 11.23 2.247 18.77 12.729 17.56 23.908l-42.97-8.593c2.74-9.234 11.31-15.747 21.07-15.747m0-2c-11.21 0-21.23 7.888-23.51 19.298l47.07 9.413c2.6-12.997-5.83-25.641-18.83-28.24-1.59-0.318-3.17-0.471-4.73-0.471"/>
<path d="m236.95 61.795l6.79 1.359c-0.74 0.84-1.82 1.361-3 1.361-0.26 0-0.53-0.027-0.79-0.079-1.45-0.29-2.56-1.333-3-2.641m-2.1-2.458c-0.65 3.249 1.46 6.41 4.71 7.06 0.4 0.079 0.79 0.117 1.18 0.117 2.8 0 5.31-1.972 5.88-4.824l-11.77-2.353"/>
<path d="m248.72 64.149l6.79 1.358c-0.74 0.84-1.82 1.361-3 1.361-0.26 0-0.53-0.027-0.79-0.079-1.45-0.29-2.56-1.333-3-2.64m-2.1-2.459c-0.65 3.249 1.46 6.41 4.71 7.06 0.39 0.08 0.79 0.118 1.18 0.118 2.8 0 5.31-1.972 5.88-4.825l-11.77-2.353"/>
<path d="m260.48 66.502l6.79 1.358c-0.74 0.841-1.82 1.361-2.99 1.361-0.27 0-0.53-0.026-0.79-0.079-1.45-0.289-2.56-1.332-3.01-2.64m-2.09-2.459c-0.65 3.25 1.45 6.411 4.7 7.061 0.4 0.079 0.8 0.117 1.19 0.117 2.8 0 5.3-1.972 5.88-4.824l-11.77-2.354"/>
<path d="m272.25 68.855l6.79 1.359c-0.74 0.84-1.82 1.361-3 1.361-0.26 0-0.52-0.027-0.79-0.079-1.45-0.29-2.55-1.333-3-2.641m-2.09-2.458c-0.66 3.249 1.45 6.41 4.7 7.06 0.4 0.079 0.79 0.118 1.18 0.118 2.81 0 5.31-1.972 5.88-4.825l-11.76-2.353"/>
<path d="m252.31 99.54l-1.96-0.392 6.67-33.34 1.96 0.393-6.67 33.339"/>
<path d="m189 116h18v24h-18v-24zm-2 26h22v-28h-22v28z"/>
<path d="m189 112h2v2h-2v-2zm-2 4h6v-6h-6v6z"/>
<path d="m197 112h2v2h-2v-2zm-2 4h6v-6h-6v6z"/>
<path d="m177 127h10v13h-10v-13zm-2 15h14v-17h-14v17z"/>
<path d="m185 123h2v2h-2v-2zm-2 4h6v-6h-6v6z"/>
<path d="m177 123h2v2h-2v-2zm-2 4h6v-6h-6v6z"/>
<path d="m209 127h10v13h-10v-13zm-2 15h14v-17h-14v17z"/>
<path d="m217 123h2v2h-2v-2zm-2 4h6v-6h-6v6z"/>
<path d="m209 123h2v2h-2v-2zm-2 4h6v-6h-6v6z"/>
<path d="m205 112h2v2h-2v-2zm-2 4h6v-6h-6v6z"/>
<path d="m199 134c0.54 0 1 0.46 1 1v5h-4v-5c0-0.54 0.46-1 1-1h2m0-2h-2c-1.65 0-3 1.35-3 3v7h8v-7c0-1.65-1.35-3-3-3"/>
<path d="m185.01 2.996c1.81 0 3.58 0.376 5.25 1.117 3.18 1.406 5.62 3.964 6.87 7.204 1.25 3.239 1.16 6.771-0.24 9.946-2.09 4.702-6.75 7.741-11.9 7.741-1.81 0-3.58-0.376-5.25-1.117-3.18-1.406-5.62-3.964-6.87-7.204-1.25-3.239-1.16-6.771 0.24-9.946 2.09-4.702 6.75-7.741 11.9-7.741m0-2c-5.76 0-11.25 3.33-13.73 8.931-3.35 7.574 0.07 16.434 7.65 19.788 1.97 0.875 4.03 1.289 6.06 1.289 5.76 0 11.25-3.33 13.73-8.931 3.35-7.575-0.07-16.434-7.65-19.789-1.97-0.874-4.03-1.288-6.06-1.288"/>
</g>
<path fill="#fff" d="m380 191.32l49 16.34-49 16.34v-32.68"/>
<path fill="#888" d="m382 194.1l40.68 13.56-40.68 13.56v-27.12m-2-2.78v32.68l49-16.34-49-16.34"/>
<path fill="#fff" d="m388 205l49 16.34-49 16.34v-32.68"/>
<path fill="#888" d="m390 207.78l40.68 13.56-40.68 13.56v-27.12m-2-2.78v32.68l49-16.34-49-16.34"/>
<path fill="#fff" d="m356 204h26v6h-26v-6z"/>
<path fill="#888" d="m358 206h22v2h-22v-2zm-2 4h26v-6h-26v6z"/>
<path fill="#fff" d="m368 218h22v6h-22v-6z"/>
<path fill="#888" d="m370 220h18v2h-18v-2zm-2 4h22v-6h-22v6z"/>
<path fill="#6EAACE" d="m346 292c20.54-0.28 43.49-11.79 43.49-34.99 0-23.18-22.95-34.7-43.49-34.99v69.98"/>
<g fill="#888">
<path d="m348 224.09c9.75 0.49 19.23 3.53 26.3 8.48 6.01 4.21 13.19 11.87 13.19 24.44 0 20.59-19.54 31.95-39.49 32.93v-65.85m-2-2.07v69.98c20.54-0.28 43.49-11.79 43.49-34.99 0-23.18-22.95-34.7-43.49-34.99"/>
<path d="m373 238v-5c0-0.55 0.45-1 1-1s1 0.45 1 1v5c0 0.55-0.45 1-1 1s-1-0.45-1-1"/>
<path d="m369 244v-14c0-0.55 0.45-1 1-1s1 0.45 1 1v14c0 0.55-0.45 1-1 1s-1-0.45-1-1"/>
<path d="m379 277v-5c0-0.55 0.45-1 1-1s1 0.45 1 1v5c0 0.55-0.45 1-1 1s-1-0.45-1-1"/>
<path d="m358 288v-12c0-0.55 0.45-1 1-1s1 0.45 1 1v12c0 0.55-0.45 1-1 1s-1-0.45-1-1"/>
<path d="m373 281v-14c0-0.55 0.45-1 1-1s1 0.45 1 1v14c0 0.55-0.45 1-1 1s-1-0.45-1-1"/>
</g>
<path fill="#6EAACE" d="m346 240h6.33c6.97 0 12.67-5.4 12.67-12s-5.7-12-12.67-12h-6.33v24"/>
<path fill="#888" d="m352.33 218c5.89 0 10.67 4.49 10.67 10s-4.78 10-10.67 10h-4.33v-20h4.33m0-2h-6.33v24h6.33c6.97 0 12.67-5.4 12.67-12s-5.7-12-12.67-12"/>
<path fill="#888" d="m346 234h4.33c4.77 0 8.67-3.15 8.67-7s-3.9-7-8.67-7h-4.33v14"/>
<path fill="#6EAACE" d="m226 444h8v8h-8v-8z"/>
<path fill="#888" d="m228 446h4v4h-4v-4zm-2 6h8v-8h-8v8z"/>
<path fill="#6EAACE" d="m214 444h8v8h-8v-8z"/>
<path fill="#888" d="m216 446h4v4h-4v-4zm-2 6h8v-8h-8v8z"/>
<path fill="#6EAACE" d="m202 444h8v8h-8v-8z"/>
<path fill="#888" d="m204 446h4v4h-4v-4zm-2 6h8v-8h-8v8z"/>
<path fill="#6EAACE" d="m226 432h8v8h-8v-8z"/>
<path fill="#888" d="m228 434h4v4h-4v-4zm-2 6h8v-8h-8v8z"/>
<path fill="#6EAACE" d="m214 432h8v8h-8v-8z"/>
<path fill="#888" d="m216 434h4v4h-4v-4zm-2 6h8v-8h-8v8z"/>
<path fill="#6EAACE" d="m202 432h8v8h-8v-8z"/>
<path fill="#888" d="m204 434h4v4h-4v-4zm-2 6h8v-8h-8v8z"/>
<path fill="#6EAACE" d="m226 420h8v8h-8v-8z"/>
<path fill="#888" d="m228 422h4v4h-4v-4zm-2 6h8v-8h-8v8z"/>
<path fill="#6EAACE" d="m226 394h8v12h-8v-12z"/>
<path fill="#888" d="m228 396h4v8h-4v-8zm-2 10h8v-12h-8v12z"/>
<path fill="#6EAACE" d="m202 394h8v12h-8v-12z"/>
<path fill="#888" d="m204 396h4v8h-4v-8zm-2 10h8v-12h-8v12z"/>
<path fill="#6EAACE" d="m214 420h8v8h-8v-8z"/>
<path fill="#888" d="m216 422h4v4h-4v-4zm-2 6h8v-8h-8v8z"/>
<path fill="#6EAACE" d="m202 420h8v8h-8v-8z"/>
<path fill="#888" d="m204 422h4v4h-4v-4zm-2 6h8v-8h-8v8z"/>
<path fill="#6EAACE" d="m33 221l3.091-4.92-7.5-7.5 13.5-13.5-9.091-8.08-30 17.08 30 16.92"/>
<path fill="#9A9A9A" d="m33.339 222.34l-32.367-18.25 32.156-18.31 10.42 9.26-13.543 13.54 7.357 7.36-4.023 6.4zm-28.311-18.26l27.633 15.58 2.159-3.43-7.643-7.65 13.457-13.46-7.762-6.9-27.844 15.86z"/>
<path fill="#6EAACE" d="m51.091 261l6.5-6.5-7.5-7.5 4-4-10-10-21.341 12 28.341 16"/>
<path fill="#9A9A9A" d="m51.261 262.24l-30.548-17.24 23.549-13.24 11.243 11.24-4 4 7.5 7.5-7.744 7.74zm-26.474-17.24l26.134 14.76 5.256-5.26-7.5-7.5 4-4-8.757-8.76-19.133 10.76z"/>
</g>
</g>
</g>
</svg>
