<?xml version="1.0" encoding="utf-8"?>
<!-- Generator: Adobe Illustrator 21.0.0, SVG Export Plug-In . SVG Version: 6.00 Build 0)  -->
<svg version="1.1" id="Слой_1" xmlns="http://www.w3.org/2000/svg" xmlns:xlink="http://www.w3.org/1999/xlink" x="0px" y="0px" width="120px" height="182px"
	 viewBox="0 0 120 182" style="enable-background:new 0 0 120 182;" xml:space="preserve">
<style type="text/css">
	.st0{fill:#888888;}
	.st1{fill:#6EAACE;}
</style>
<g>
	<g transform="translate(-63 -207)">
		<g transform="translate(63 207)">
			<g>
				<path class="st0" d="M2,120h116v3H2V120z M0,125h120v-7H0V125z"/>
				<path class="st0" d="M6,125h108v3H6V125z M4,130h112v-7H4V130z"/>
				<path class="st0" d="M27,40h66v3H27V40z M25,45h70v-7H25V45z"/>
				<path class="st0" d="M42,25h36v13H42V25z M40,40h40V23H40V40z"/>
				<path class="st0" d="M36,21h48v2H36V21z M34,25h52v-6H34V25z"/>
				<path class="st0" d="M59,2h2v17h-2V2z M57,21h6V0h-6V21z"/>
			</g>
			<path class="st1" d="M45,27h6v9h-6V27z"/>
			<path class="st0" d="M47,29h2v5h-2V29z M45,36h6v-9h-6V36z"/>
			<path class="st1" d="M53,27h6v9h-6V27z"/>
			<path class="st0" d="M55,29h2v5h-2V29z M53,36h6v-9h-6V36z"/>
			<path class="st1" d="M61,27h6v9h-6V27z"/>
			<path class="st0" d="M63,29h2v5h-2V29z M61,36h6v-9h-6V36z"/>
			<path class="st1" d="M69,27h6v9h-6V27z"/>
			<g>
				<path class="st0" d="M71,29h2v5h-2V29z M69,36h6v-9h-6V36z"/>
				<path class="st0" d="M2,177h116v3H2V177z M0,182h120v-7H0V182z"/>
				<path class="st0" d="M6,128h2v47H6V128z"/>
				<path class="st0" d="M112,128h2v47h-2V128L112,128z"/>
			</g>
			<path class="st1" d="M13,133h10v10H13V133z"/>
			<path class="st0" d="M15,135h6v6h-6V135z M13,143h10v-10H13V143z"/>
			<path class="st1" d="M27,133h10v10H27V133z"/>
			<path class="st0" d="M29,135h6v6h-6V135z M27,143h10v-10H27V143z"/>
			<path class="st1" d="M41,133h10v10H41V133z"/>
			<path class="st0" d="M43,135h6v6h-6V135z M41,143h10v-10H41V143z"/>
			<path class="st1" d="M55,133h10v10H55V133z"/>
			<path class="st0" d="M57,135h6v6h-6V135z M55,143h10v-10H55V143z"/>
			<path class="st1" d="M69,133h10v10H69V133z"/>
			<path class="st0" d="M71,135h6v6h-6V135z M69,143h10v-10H69V143z"/>
			<path class="st1" d="M83,133h10v10H83V133z"/>
			<path class="st0" d="M85,135h6v6h-6V135z M83,143h10v-10H83V143z"/>
			<path class="st1" d="M97,133h10v10H97V133z"/>
			<path class="st0" d="M99,135h6v6h-6V135z M97,143h10v-10H97V143z"/>
			<path class="st1" d="M13,147h10v10H13V147z"/>
			<path class="st0" d="M15,149h6v6h-6V149z M13,157h10v-10H13V157z"/>
			<path class="st1" d="M27,147h10v10H27V147z"/>
			<path class="st0" d="M29,149h6v6h-6V149z M27,157h10v-10H27V157z"/>
			<path class="st1" d="M41,147h10v10H41V147z"/>
			<path class="st0" d="M43,149h6v6h-6V149z M41,157h10v-10H41V157z"/>
			<path class="st1" d="M55,147h10v10H55V147z"/>
			<path class="st0" d="M57,149h6v6h-6V149z M55,157h10v-10H55V157z"/>
			<path class="st1" d="M69,147h10v10H69V147z"/>
			<path class="st0" d="M71,149h6v6h-6V149z M69,157h10v-10H69V157z"/>
			<path class="st1" d="M83,147h10v10H83V147z"/>
			<path class="st0" d="M85,149h6v6h-6V149z M83,157h10v-10H83V157z"/>
			<path class="st1" d="M13,161h10v10H13V161z"/>
			<path class="st0" d="M15,163h6v6h-6V163z M13,171h10v-10H13V171z"/>
			<path class="st1" d="M27,161h10v10H27V161z"/>
			<path class="st0" d="M29,163h6v6h-6V163z M27,171h10v-10H27V171z"/>
			<path class="st1" d="M41,161h10v10H41V161z"/>
			<path class="st0" d="M43,163h6v6h-6V163z M41,171h10v-10H41V171z"/>
			<path class="st1" d="M55,161h10v10H55V161z"/>
			<path class="st0" d="M57,163h6v6h-6V163z M55,171h10v-10H55V171z"/>
			<path class="st1" d="M69,161h10v10H69V161z"/>
			<path class="st0" d="M71,163h6v6h-6V163z M69,171h10v-10H69V171z"/>
			<path class="st1" d="M83,161h10v10H83V161z"/>
			<path class="st0" d="M85,163h6v6h-6V163z M83,171h10v-10H83V171z"/>
			<path class="st1" d="M97,161h10v10H97V161z"/>
			<path class="st0" d="M99,163h6v6h-6V163z M97,171h10v-10H97V171z"/>
			<path class="st1" d="M97,147h10v10H97V147z"/>
			<g>
				<path class="st0" d="M99,149h6v6h-6V149z M97,157h10v-10H97V157z"/>
				<path class="st0" d="M28,45h2v75h-2V45z"/>
				<path class="st0" d="M90,45.1h2V120h-2V45.1z"/>
			</g>
			<path class="st1" d="M34,48h10v10H34V48z"/>
			<path class="st0" d="M36,50h6v6h-6V50z M34,58h10V48H34V58z"/>
			<path class="st1" d="M48,48h10v10H48V48z"/>
			<path class="st0" d="M50,50h6v6h-6V50z M48,58h10V48H48V58z"/>
			<path class="st1" d="M62,48h10v10H62V48z"/>
			<path class="st0" d="M64,50h6v6h-6V50z M62,58h10V48H62V58z"/>
			<path class="st1" d="M76,48h10v10H76V48z"/>
			<path class="st0" d="M78,50h6v6h-6V50z M76,58h10V48H76V58z"/>
			<path class="st1" d="M34,62h10v10H34V62z"/>
			<path class="st0" d="M36,64h6v6h-6V64z M34,72h10V62H34V72z"/>
			<path class="st1" d="M48,62h10v10H48V62z"/>
			<path class="st0" d="M50,64h6v6h-6V64z M48,72h10V62H48V72z"/>
			<path class="st1" d="M62,62h10v10H62V62z"/>
			<path class="st0" d="M64,64h6v6h-6V64z M62,72h10V62H62V72z"/>
			<path class="st1" d="M76,62h10v10H76V62z"/>
			<path class="st0" d="M78,64h6v6h-6V64z M76,72h10V62H76V72z"/>
			<path class="st1" d="M34,76h10v10H34V76z"/>
			<path class="st0" d="M36,78h6v6h-6V78z M34,86h10V76H34V86z"/>
			<path class="st1" d="M48,76h10v10H48V76z"/>
			<path class="st0" d="M50,78h6v6h-6V78z M48,86h10V76H48V86z"/>
			<path class="st1" d="M62,76h10v10H62V76z"/>
			<path class="st0" d="M64,78h6v6h-6V78z M62,86h10V76H62V86z"/>
			<path class="st1" d="M76,76h10v10H76V76z"/>
			<path class="st0" d="M78,78h6v6h-6V78z M76,86h10V76H76V86z"/>
			<path class="st1" d="M34,90h10v10H34V90z"/>
			<path class="st0" d="M36,92h6v6h-6V92z M34,100h10V90H34V100z"/>
			<path class="st1" d="M48,90h10v10H48V90z"/>
			<path class="st0" d="M50,92h6v6h-6V92z M48,100h10V90H48V100z"/>
			<path class="st1" d="M62,90h10v10H62V90z"/>
			<path class="st0" d="M64,92h6v6h-6V92z M62,100h10V90H62V100z"/>
			<path class="st1" d="M76,90h10v10H76V90z"/>
			<path class="st0" d="M78,92h6v6h-6V92z M76,100h10V90H76V100z"/>
			<path class="st1" d="M34,104h10v10H34V104z"/>
			<path class="st0" d="M36,106h6v6h-6V106z M34,114h10v-10H34V114z"/>
			<path class="st1" d="M48,104h10v10H48V104z"/>
			<path class="st0" d="M50,106h6v6h-6V106z M48,114h10v-10H48V114z"/>
			<path class="st1" d="M62,104h10v10H62V104z"/>
			<path class="st0" d="M64,106h6v6h-6V106z M62,114h10v-10H62V114z"/>
			<path class="st1" d="M76,104h10v10H76V104z"/>
			<path class="st0" d="M78,106h6v6h-6V106z M76,114h10v-10H76V114z"/>
		</g>
	</g>
</g>
</svg>
