<svg xmlns="http://www.w3.org/2000/svg" height="182px" width="160px" xmlns:xlink="http://www.w3.org/1999/xlink" viewBox="0 0 160 182">
<g fill-rule="evenodd" fill="none">
<g transform="translate(-987 -758)">
<g transform="translate(987 758)">
<path fill="#fff" d="m10 6h6v164h-6v-164z"/>
<path fill="#888" d="m12 8h2v160h-2v-160zm-2 162h6v-164h-6v164z"/>
<path fill="#fff" d="m5 0h150v8h-150v-8z"/>
<path fill="#888" d="m7 2h146v4h-146v-4zm-2 6h150v-8h-150v8z"/>
<path fill="#fff" d="m10 174h140v8h-140v-8z"/>
<path fill="#888" d="m12 176h136v4h-136v-4zm-2 6h140v-8h-140v8z"/>
<path fill="#fff" d="m0.06 168h159.94v8h-159.94v-8z"/>
<path fill="#888" d="m2 170h156v4h-156v-4zm-2 6h160v-8h-160v8z"/>
<path fill="#fff" d="m144 6h6v164h-6v-164z"/>
<path fill="#888" d="m146 8h2v160h-2v-160zm-2 162h6v-164h-6v164z"/>
</g>
</g>
</g>
</svg>
