<svg xmlns="http://www.w3.org/2000/svg" height="64px" width="64px" xmlns:xlink="http://www.w3.org/1999/xlink" viewBox="0 0 64 64">
<g fill-rule="evenodd" fill="none">
<g stroke-width="2" stroke="#888" transform="translate(-1028 -780)">
<g transform="translate(1003 766)">
<path d="m36.988 39.408l-9.143-4.049c-1.006-0.445-1.465-1.632-1.019-2.638 0.445-1.006 1.633-1.464 2.638-1.019l9.144 4.049c1.006 0.445 1.464 1.633 1.019 2.638-0.445 1.006-1.633 1.465-2.639 1.019zm47.548 21.054l-9.144-4.048c-1.006-0.446-1.464-1.633-1.019-2.639s1.633-1.464 2.638-1.019l9.144 4.049c1.006 0.445 1.464 1.633 1.019 2.638-0.445 1.006-1.633 1.465-2.638 1.019zm-34.21 5.632l-4.049 9.143c-0.445 1.006-1.632 1.465-2.638 1.019-1.006-0.445-1.465-1.632-1.019-2.638l4.049-9.144c0.445-1.006 1.632-1.464 2.638-1.019 1.006 0.446 1.464 1.633 1.019 2.639zm21.054-47.547l-4.049 9.143c-0.445 1.006-1.632 1.465-2.638 1.019-1.006-0.445-1.464-1.632-1.019-2.638l4.049-9.144c0.445-1.006 1.632-1.464 2.638-1.019 1.006 0.446 1.465 1.633 1.019 2.639zm-33.249 36.966l-9.329 3.603c-1.026 0.396-2.19-0.119-2.586-1.145s0.119-2.19 1.145-2.586l9.329-3.603c1.026-0.396 2.19 0.119 2.586 1.145s-0.119 2.19-1.145 2.586zm48.508-18.733l-9.329 3.602c-1.026 0.397-2.19-0.118-2.586-1.145-0.396-1.026 0.119-2.19 1.145-2.586l9.329-3.603c1.026-0.396 2.19 0.12 2.586 1.146s-0.119 2.19-1.145 2.586zm-39.07-9.567l-3.603-9.329c-0.396-1.026 0.119-2.19 1.145-2.586 1.027-0.396 2.19 0.119 2.587 1.145l3.602 9.329c0.397 1.026-0.119 2.19-1.145 2.586s-2.19-0.119-2.586-1.145zm18.733 48.508l-3.602-9.328c-0.397-1.026 0.119-2.19 1.145-2.587 1.026-0.396 2.19 0.12 2.586 1.146l3.603 9.328c0.396 1.026-0.119 2.19-1.146 2.586-1.026 0.397-2.189-0.119-2.586-1.145z"/>
</g>
</g>
</g>
</svg>
